<svg width="512" height="512" viewBox="0 0 512 512" fill="none" xmlns="http://www.w3.org/2000/svg">
  <g filter="url(#filter0_d_52_1352)">
    <path d="M108 167C117.039 167 125.752 170.374 132.434 176.462L216.195 252.777C222.835 258.826 229.287 265.148 236.304 269.93C243.247 274.662 250.24 277.514 257.73 277.009C263.848 276.596 269.472 273.942 275.021 269.998C280.633 266.008 285.779 261.001 291.208 256.055L307.6 241.119L313.531 246.537L296.596 261.969C291.451 266.656 285.782 272.163 279.655 276.519C273.465 280.919 266.424 284.441 258.27 284.991C248.275 285.665 239.494 281.786 231.799 276.541C224.176 271.346 217.123 264.445 210.808 258.691L127.046 182.375C121.838 177.63 115.046 175 108 175H104V167H108ZM407 175H403C395.954 175 389.162 177.63 383.954 182.375L330.605 230.981L324.673 225.563L378.566 176.462C385.248 170.374 393.961 167 403 167H407V175Z" fill="#ffffff"/>
    <path d="M403 285.067C393.961 285.067 385.248 281.693 378.566 275.605L294.805 199.29C288.165 193.241 281.713 186.92 274.696 182.138C267.753 177.406 260.76 174.554 253.27 175.059C247.152 175.471 241.528 178.125 235.979 182.069C230.367 186.059 225.221 191.067 219.792 196.013L181.021 231.338L175.089 225.921L214.404 190.099C219.549 185.411 225.218 179.904 231.345 175.549C237.535 171.148 244.576 167.626 252.73 167.076C262.725 166.402 271.506 170.282 279.201 175.526C286.824 180.721 293.877 187.622 300.192 193.376L383.954 269.692C389.162 274.437 395.954 277.067 403 277.067H407V285.067H403ZM104 277.067H108C115.046 277.067 121.838 274.437 127.046 269.692L158.015 241.477L163.947 246.895L132.434 275.605C125.752 281.693 117.039 285.067 108 285.067H104V277.067Z" fill="#ffffff"/>
  </g>
  <defs>
    <filter id="filter0_d_52_1352" x="93" y="160" width="325" height="140.067" filterUnits="userSpaceOnUse" color-interpolation-filters="sRGB">
      <feFlood flood-opacity="0" result="BackgroundImageFix"/>
      <feColorMatrix in="SourceAlpha" type="matrix" values="0 0 0 0 0 0 0 0 0 0 0 0 0 0 0 0 0 0 127 0" result="hardAlpha"/>
      <feOffset dy="4"/>
      <feGaussianBlur stdDeviation="5.5"/>
      <feComposite in2="hardAlpha" operator="out"/>
      <feColorMatrix type="matrix" values="0 0 0 0 0 0 0 0 0 0 0 0 0 0 0 0 0 0 0.4 0"/>
      <feBlend mode="normal" in2="BackgroundImageFix" result="effect1_dropShadow_52_1352"/>
      <feBlend mode="normal" in="SourceGraphic" in2="effect1_dropShadow_52_1352" result="shape"/>
    </filter>
  </defs>
</svg>

