<svg width="512" height="512" viewBox="0 0 512 512" fill="none" xmlns="http://www.w3.org/2000/svg">
<rect width="512" height="512" rx="32" fill="black"/>
<g filter="url(#filter0_d_52_1374)">
<path d="M108 167C117.039 167 125.752 170.374 132.434 176.462L216.195 252.777C222.835 258.826 229.287 265.148 236.304 269.93C243.247 274.662 250.24 277.514 257.73 277.009C263.848 276.596 269.472 273.942 275.021 269.998C280.633 266.008 285.779 261.001 291.208 256.055L307.6 241.119L313.531 246.537L296.596 261.969C291.451 266.656 285.782 272.163 279.655 276.519C273.465 280.919 266.424 284.441 258.27 284.991C248.275 285.665 239.494 281.786 231.799 276.541C224.176 271.346 217.123 264.445 210.808 258.691L127.046 182.375C121.838 177.63 115.046 175 108 175H104V167H108ZM407 175H403C395.954 175 389.162 177.63 383.954 182.375L330.605 230.981L324.673 225.563L378.566 176.462C385.248 170.374 393.961 167 403 167H407V175Z" fill="#F1F1F1"/>
<path d="M403 285.067C393.961 285.067 385.248 281.693 378.566 275.605L294.805 199.29C288.165 193.241 281.713 186.92 274.696 182.138C267.753 177.406 260.76 174.554 253.27 175.059C247.152 175.471 241.528 178.125 235.979 182.069C230.367 186.059 225.221 191.067 219.792 196.013L181.021 231.338L175.089 225.921L214.404 190.099C219.549 185.411 225.218 179.904 231.345 175.549C237.535 171.148 244.576 167.626 252.73 167.076C262.725 166.402 271.506 170.282 279.201 175.526C286.824 180.721 293.877 187.622 300.192 193.376L383.954 269.692C389.162 274.437 395.954 277.067 403 277.067H407V285.067H403ZM104 277.067H108C115.046 277.067 121.838 274.437 127.046 269.692L158.015 241.477L163.947 246.895L132.434 275.605C125.752 281.693 117.039 285.067 108 285.067H104V277.067Z" fill="#F1F1F1"/>
</g>
<path d="M148.313 407V385.774H126.374V407H112.752V354.174H126.374V373.894H148.313V354.174H161.935V407H148.313ZM219.112 407V354.174H232.734V395.12H253.96V407H219.112ZM281 407.95C268.011 407.95 260.17 398.605 260.17 387.834C260.17 377.062 268.011 367.796 281 367.796C294.147 367.796 301.909 377.062 301.909 387.834C301.909 398.605 294.147 407.95 281 407.95ZM281 397.179C286.386 397.179 289.395 392.982 289.395 387.834C289.395 382.765 286.386 378.567 281 378.567C275.694 378.567 272.763 382.765 272.763 387.834C272.763 392.982 275.694 397.179 281 397.179ZM329.009 407.95C316.02 407.95 308.179 398.605 308.179 387.834C308.179 377.062 316.02 367.796 329.009 367.796C342.156 367.796 349.918 377.062 349.918 387.834C349.918 398.605 342.156 407.95 329.009 407.95ZM329.009 397.179C334.394 397.179 337.404 392.982 337.404 387.834C337.404 382.765 334.394 378.567 329.009 378.567C323.702 378.567 320.772 382.765 320.772 387.834C320.772 392.982 323.702 397.179 329.009 397.179ZM359.039 407V354.174H385.492C397.372 354.174 403.866 362.173 403.866 371.756C403.866 381.26 397.372 389.101 385.492 389.101H372.662V407H359.039ZM390.006 371.677C390.006 368.034 387.314 365.658 383.67 365.658H372.662V377.538H383.67C387.314 377.538 390.006 375.241 390.006 371.677Z" fill="#F1F1F1"/>
<path d="M175.465 407.5V399.688C192.314 387.503 195.462 384.821 195.462 380.973C195.462 378.292 192.955 376.892 189.924 376.892C185.784 376.892 182.52 378.525 179.721 381.148L174.183 374.502C178.322 369.955 184.502 368.031 189.924 368.031C199.077 368.031 205.665 373.161 205.665 380.973C205.665 386.92 201.409 391.992 190.973 398.755H205.956V407.5H175.465Z" fill="url(#paint0_linear_52_1374)"/>
<defs>
<filter id="filter0_d_52_1374" x="93" y="160" width="325" height="140.067" filterUnits="userSpaceOnUse" color-interpolation-filters="sRGB">
<feFlood flood-opacity="0" result="BackgroundImageFix"/>
<feColorMatrix in="SourceAlpha" type="matrix" values="0 0 0 0 0 0 0 0 0 0 0 0 0 0 0 0 0 0 127 0" result="hardAlpha"/>
<feOffset dy="4"/>
<feGaussianBlur stdDeviation="5.5"/>
<feComposite in2="hardAlpha" operator="out"/>
<feColorMatrix type="matrix" values="0 0 0 0 0 0 0 0 0 0 0 0 0 0 0 0 0 0 0.4 0"/>
<feBlend mode="normal" in2="BackgroundImageFix" result="effect1_dropShadow_52_1374"/>
<feBlend mode="normal" in="SourceGraphic" in2="effect1_dropShadow_52_1374" result="shape"/>
</filter>
<linearGradient id="paint0_linear_52_1374" x1="172.9" y1="390.5" x2="208.9" y2="390.5" gradientUnits="userSpaceOnUse">
<stop stop-color="#00C6FF"/>
<stop offset="1" stop-color="#0072FF"/>
</linearGradient>
</defs>
</svg>
